<svg width="511" height="511" viewBox="0 0 511 511" fill="none" xmlns="http://www.w3.org/2000/svg">
<circle cx="255.5" cy="255.5" r="255.5" fill="#A06240"/>
<circle cx="255.5" cy="257.5" r="238.5" fill="#FCB500"/>
<circle cx="65" cy="250" r="19" fill="#A33829"/>
<circle cx="129" cy="200" r="19" fill="#A33829"/>
<circle cx="306.5" cy="103.5" r="22.5" fill="#A33829"/>
<circle cx="306.5" cy="325.5" r="22.5" fill="#A33829"/>
<circle cx="267" cy="228" r="39" fill="#A33829"/>
<circle cx="170" cy="365" r="39" fill="#A33829"/>
<circle cx="187" cy="120" r="39" fill="#A33829"/>
<circle cx="359.5" cy="188.5" r="22.5" fill="#A33829"/>
<circle cx="192.5" cy="278.5" r="22.5" fill="#A33829"/>
<circle cx="382" cy="292" r="34" fill="#A33829"/>
<circle cx="285" cy="429" r="34" fill="#A33829"/>
<path d="M272.99 130.014C273.646 130.014 273.95 129.862 273.95 129.122C273.95 128.596 273.05 129.434 272.998 129.671C272.882 130.191 273.033 131.022 273.683 131.103C274.901 131.255 275.458 130.499 275.458 129.328C275.458 127.176 269.235 128.097 271.268 130.669C272.016 131.615 273.54 132.291 274.636 131.492C275.562 130.816 276.392 128.961 275.672 127.881C274.885 126.701 272.914 126.744 271.969 127.614C270.844 128.649 270.577 129.948 271.611 131.111C272.291 131.876 273.511 132.901 274.643 132.406C275.968 131.826 276.33 129.649 275.794 128.429C275.266 127.231 273.547 126.616 272.335 127.301C271.14 127.977 270.677 129.723 271.207 130.943C271.885 132.501 274.301 133.162 275.702 132.345C276.74 131.739 276.663 130.137 276.144 129.206C275.562 128.162 274.269 128.368 273.264 128.368" stroke="#00611B" stroke-width="6" stroke-linecap="round"/>
<path d="M227.13 163.037C227.786 163.037 228.09 162.886 228.09 162.146C228.09 161.62 227.19 162.458 227.138 162.695C227.022 163.215 227.173 164.046 227.823 164.127C229.041 164.279 229.598 163.523 229.598 162.352C229.598 160.199 223.375 161.121 225.408 163.693C226.156 164.638 227.681 165.315 228.776 164.515C229.702 163.839 230.532 161.985 229.812 160.904C229.025 159.724 227.055 159.768 226.109 160.638C224.984 161.673 224.717 162.971 225.751 164.134C226.431 164.9 227.651 165.925 228.783 165.43C230.108 164.85 230.47 162.672 229.934 161.453C229.406 160.254 227.687 159.64 226.475 160.325C225.28 161.001 224.817 162.747 225.347 163.967C226.025 165.525 228.441 166.186 229.842 165.369C230.88 164.763 230.803 163.161 230.284 162.23C229.702 161.186 228.409 161.392 227.404 161.392" stroke="#00611B" stroke-width="6" stroke-linecap="round"/>
<path d="M287.13 156.037C287.786 156.037 288.09 155.886 288.09 155.146C288.09 154.62 287.19 155.458 287.138 155.695C287.022 156.215 287.173 157.046 287.823 157.127C289.041 157.279 289.598 156.523 289.598 155.352C289.598 153.199 283.375 154.121 285.408 156.693C286.156 157.638 287.681 158.315 288.776 157.515C289.702 156.839 290.532 154.985 289.812 153.904C289.025 152.724 287.055 152.768 286.109 153.638C284.984 154.673 284.717 155.971 285.751 157.134C286.431 157.9 287.651 158.925 288.783 158.43C290.108 157.85 290.47 155.672 289.934 154.453C289.406 153.254 287.687 152.64 286.475 153.325C285.28 154.001 284.817 155.747 285.347 156.967C286.025 158.525 288.441 159.186 289.842 158.369C290.88 157.763 290.803 156.161 290.284 155.23C289.702 154.186 288.409 154.392 287.404 154.392" stroke="#00611B" stroke-width="6" stroke-linecap="round"/>
<path d="M331.13 163.037C331.786 163.037 332.09 162.886 332.09 162.146C332.09 161.62 331.19 162.458 331.138 162.695C331.022 163.215 331.173 164.046 331.823 164.127C333.041 164.279 333.598 163.523 333.598 162.352C333.598 160.199 327.375 161.121 329.408 163.693C330.156 164.638 331.681 165.315 332.776 164.515C333.702 163.839 334.532 161.985 333.812 160.904C333.025 159.724 331.055 159.768 330.109 160.638C328.984 161.673 328.717 162.971 329.751 164.134C330.431 164.9 331.651 165.925 332.783 165.43C334.108 164.85 334.47 162.672 333.934 161.453C333.406 160.254 331.687 159.64 330.475 160.325C329.28 161.001 328.817 162.747 329.347 163.967C330.025 165.525 332.441 166.186 333.842 165.369C334.88 164.763 334.803 163.161 334.284 162.23C333.702 161.186 332.409 161.392 331.404 161.392" stroke="#00611B" stroke-width="6" stroke-linecap="round"/>
<path d="M390.13 231.037C390.786 231.037 391.09 230.886 391.09 230.146C391.09 229.62 390.19 230.458 390.138 230.695C390.022 231.215 390.173 232.046 390.823 232.127C392.041 232.279 392.598 231.523 392.598 230.352C392.598 228.199 386.375 229.121 388.408 231.693C389.156 232.638 390.681 233.315 391.776 232.515C392.702 231.839 393.532 229.985 392.812 228.904C392.025 227.724 390.055 227.768 389.109 228.638C387.984 229.673 387.717 230.971 388.751 232.134C389.431 232.9 390.651 233.925 391.783 233.43C393.108 232.85 393.47 230.672 392.934 229.453C392.406 228.254 390.687 227.64 389.475 228.325C388.28 229.001 387.817 230.747 388.347 231.967C389.025 233.525 391.441 234.186 392.842 233.369C393.88 232.763 393.803 231.161 393.284 230.23C392.702 229.186 391.409 229.392 390.404 229.392" stroke="#00611B" stroke-width="6" stroke-linecap="round"/>
<path d="M263.13 295.037C263.786 295.037 264.09 294.886 264.09 294.146C264.09 293.62 263.19 294.458 263.138 294.695C263.022 295.215 263.173 296.046 263.823 296.127C265.041 296.279 265.598 295.523 265.598 294.352C265.598 292.199 259.375 293.121 261.408 295.693C262.156 296.638 263.681 297.315 264.776 296.515C265.702 295.839 266.532 293.985 265.812 292.904C265.025 291.724 263.055 291.768 262.109 292.638C260.984 293.673 260.717 294.971 261.751 296.134C262.431 296.9 263.651 297.925 264.783 297.43C266.108 296.85 266.47 294.672 265.934 293.453C265.406 292.254 263.687 291.64 262.475 292.325C261.28 293.001 260.817 294.747 261.347 295.967C262.025 297.525 264.441 298.186 265.842 297.369C266.88 296.763 266.803 295.161 266.284 294.23C265.702 293.186 264.409 293.392 263.404 293.392" stroke="#00611B" stroke-width="6" stroke-linecap="round"/>
<path d="M194.13 228.037C194.786 228.037 195.09 227.886 195.09 227.146C195.09 226.62 194.19 227.458 194.138 227.695C194.022 228.215 194.173 229.046 194.823 229.127C196.041 229.279 196.598 228.523 196.598 227.352C196.598 225.199 190.375 226.121 192.408 228.693C193.156 229.638 194.681 230.315 195.776 229.515C196.702 228.839 197.532 226.985 196.812 225.904C196.025 224.724 194.055 224.768 193.109 225.638C191.984 226.673 191.717 227.971 192.751 229.134C193.431 229.9 194.651 230.925 195.783 230.43C197.108 229.85 197.47 227.672 196.934 226.453C196.406 225.254 194.687 224.64 193.475 225.325C192.28 226.001 191.817 227.747 192.347 228.967C193.025 230.525 195.441 231.186 196.842 230.369C197.88 229.763 197.803 228.161 197.284 227.23C196.702 226.186 195.409 226.392 194.404 226.392" stroke="#00611B" stroke-width="6" stroke-linecap="round"/>
<path d="M227.13 197.037C227.786 197.037 228.09 196.886 228.09 196.146C228.09 195.62 227.19 196.458 227.138 196.695C227.022 197.215 227.173 198.046 227.823 198.127C229.041 198.279 229.598 197.523 229.598 196.352C229.598 194.199 223.375 195.121 225.408 197.693C226.156 198.638 227.681 199.315 228.776 198.515C229.702 197.839 230.532 195.985 229.812 194.904C229.025 193.724 227.055 193.768 226.109 194.638C224.984 195.673 224.717 196.971 225.751 198.134C226.431 198.9 227.651 199.925 228.783 199.43C230.108 198.85 230.47 196.672 229.934 195.453C229.406 194.254 227.687 193.64 226.475 194.325C225.28 195.001 224.817 196.747 225.347 197.967C226.025 199.525 228.441 200.186 229.842 199.369C230.88 198.763 230.803 197.161 230.284 196.23C229.702 195.186 228.409 195.392 227.404 195.392" stroke="#00611B" stroke-width="6" stroke-linecap="round"/>
<path d="M166.13 184.037C166.786 184.037 167.09 183.886 167.09 183.146C167.09 182.62 166.19 183.458 166.138 183.695C166.022 184.215 166.173 185.046 166.823 185.127C168.041 185.279 168.598 184.523 168.598 183.352C168.598 181.199 162.375 182.121 164.408 184.693C165.156 185.638 166.681 186.315 167.776 185.515C168.702 184.839 169.532 182.985 168.812 181.904C168.025 180.724 166.055 180.768 165.109 181.638C163.984 182.673 163.717 183.971 164.751 185.134C165.431 185.9 166.651 186.925 167.783 186.43C169.108 185.85 169.47 183.672 168.934 182.453C168.406 181.254 166.687 180.64 165.475 181.325C164.28 182.001 163.817 183.747 164.347 184.967C165.025 186.525 167.441 187.186 168.842 186.369C169.88 185.763 169.803 184.161 169.284 183.23C168.702 182.186 167.409 182.392 166.404 182.392" stroke="#00611B" stroke-width="6" stroke-linecap="round"/>
<path d="M147.13 243.037C147.786 243.037 148.09 242.886 148.09 242.146C148.09 241.62 147.19 242.458 147.138 242.695C147.022 243.215 147.173 244.046 147.823 244.127C149.041 244.279 149.598 243.523 149.598 242.352C149.598 240.199 143.375 241.121 145.408 243.693C146.156 244.638 147.681 245.315 148.776 244.515C149.702 243.839 150.532 241.985 149.812 240.904C149.025 239.724 147.055 239.768 146.109 240.638C144.984 241.673 144.717 242.971 145.751 244.134C146.431 244.9 147.651 245.925 148.783 245.43C150.108 244.85 150.47 242.672 149.934 241.453C149.406 240.254 147.687 239.64 146.475 240.325C145.28 241.001 144.817 242.747 145.347 243.967C146.025 245.525 148.441 246.186 149.842 245.369C150.88 244.763 150.803 243.161 150.284 242.23C149.702 241.186 148.409 241.392 147.404 241.392" stroke="#00611B" stroke-width="6" stroke-linecap="round"/>
<path d="M114.13 292.037C114.786 292.037 115.09 291.886 115.09 291.146C115.09 290.62 114.19 291.458 114.138 291.695C114.022 292.215 114.173 293.046 114.823 293.127C116.041 293.279 116.598 292.523 116.598 291.352C116.598 289.199 110.375 290.121 112.408 292.693C113.156 293.638 114.681 294.315 115.776 293.515C116.702 292.839 117.532 290.985 116.812 289.904C116.025 288.724 114.055 288.768 113.109 289.638C111.984 290.673 111.717 291.971 112.751 293.134C113.431 293.9 114.651 294.925 115.783 294.43C117.108 293.85 117.47 291.672 116.934 290.453C116.406 289.254 114.687 288.64 113.475 289.325C112.28 290.001 111.817 291.747 112.347 292.967C113.025 294.525 115.441 295.186 116.842 294.369C117.88 293.763 117.803 292.161 117.284 291.23C116.702 290.186 115.409 290.392 114.404 290.392" stroke="#00611B" stroke-width="6" stroke-linecap="round"/>
<path d="M94.13 338.037C94.786 338.037 95.09 337.886 95.09 337.146C95.09 336.62 94.1902 337.458 94.1377 337.695C94.022 338.215 94.1729 339.046 94.8233 339.127C96.041 339.279 96.5985 338.523 96.5985 337.352C96.5985 335.199 90.3749 336.121 92.4082 338.693C93.156 339.638 94.6805 340.315 95.7757 339.515C96.7022 338.839 97.532 336.985 96.8118 335.904C96.0253 334.724 94.0546 334.768 93.1091 335.638C91.984 336.673 91.7171 337.971 92.7511 339.134C93.4314 339.9 94.6513 340.925 95.7833 340.43C97.1079 339.85 97.4703 337.672 96.9337 336.453C96.4064 335.254 94.6871 334.64 93.4748 335.325C92.28 336.001 91.8168 337.747 92.3473 338.967C93.0247 340.525 95.4414 341.186 96.8423 340.369C97.8805 339.763 97.8034 338.161 97.2841 337.23C96.7018 336.186 95.4089 336.392 94.4043 336.392" stroke="#00611B" stroke-width="6" stroke-linecap="round"/>
</svg>
